<?xml version="1.0" encoding="utf-8"?>
<svg version="1.1" xmlns:xlink="http://www.w3.org/1999/xlink" width="13px" height="13px" viewBox="13 379.5  13 13" xmlns="http://www.w3.org/2000/svg">
  <path d="M 13.5 381.5  A 1.5 1.5 0 0 1 15 380 L 24 380  A 1.5 1.5 0 0 1 25.5 381.5 L 25.5 390.5  A 1.5 1.5 0 0 1 24 392 L 15 392  A 1.5 1.5 0 0 1 13.5 390.5 L 13.5 381.5  Z " fill-rule="nonzero" fill="#f0f0f0" stroke="none" />
  <path d="M 13.5 381.5  A 1.5 1.5 0 0 1 15 380 L 24 380  A 1.5 1.5 0 0 1 25.5 381.5 L 25.5 390.5  A 1.5 1.5 0 0 1 24 392 L 15 392  A 1.5 1.5 0 0 1 13.5 390.5 L 13.5 381.5  Z " stroke-width="1" stroke="#797979" fill="none" />
</svg>