<?xml version="1.0" encoding="utf-8"?>
<svg version="1.1" xmlns:xlink="http://www.w3.org/1999/xlink" width="13px" height="13px" viewBox="55 302.5  13 13" xmlns="http://www.w3.org/2000/svg">
  <path d="M 55.5 304.5  A 1.5 1.5 0 0 1 57 303 L 66 303  A 1.5 1.5 0 0 1 67.5 304.5 L 67.5 313.5  A 1.5 1.5 0 0 1 66 315 L 57 315  A 1.5 1.5 0 0 1 55.5 313.5 L 55.5 304.5  Z " fill-rule="nonzero" fill="#ffffff" stroke="none" />
  <path d="M 55.5 304.5  A 1.5 1.5 0 0 1 57 303 L 66 303  A 1.5 1.5 0 0 1 67.5 304.5 L 67.5 313.5  A 1.5 1.5 0 0 1 66 315 L 57 315  A 1.5 1.5 0 0 1 55.5 313.5 L 55.5 304.5  Z " stroke-width="1" stroke="#797979" fill="none" />
</svg>