<?xml version="1.0" encoding="utf-8"?>
<svg version="1.1" xmlns:xlink="http://www.w3.org/1999/xlink" width="13px" height="13px" viewBox="13 14.5  13 13" xmlns="http://www.w3.org/2000/svg">
  <path d="M 13.5 16.5  A 1.5 1.5 0 0 1 15 15 L 24 15  A 1.5 1.5 0 0 1 25.5 16.5 L 25.5 25.5  A 1.5 1.5 0 0 1 24 27 L 15 27  A 1.5 1.5 0 0 1 13.5 25.5 L 13.5 16.5  Z " fill-rule="nonzero" fill="#ffffff" stroke="none" />
  <path d="M 13.5 16.5  A 1.5 1.5 0 0 1 15 15 L 24 15  A 1.5 1.5 0 0 1 25.5 16.5 L 25.5 25.5  A 1.5 1.5 0 0 1 24 27 L 15 27  A 1.5 1.5 0 0 1 13.5 25.5 L 13.5 16.5  Z " stroke-width="1" stroke="#797979" fill="none" />
</svg>