<?xml version="1.0" encoding="utf-8"?>
<svg version="1.1" xmlns:xlink="http://www.w3.org/1999/xlink" width="13px" height="13px" viewBox="13 405.5  13 13" xmlns="http://www.w3.org/2000/svg">
  <path d="M 13.5 407.5  A 1.5 1.5 0 0 1 15 406 L 24 406  A 1.5 1.5 0 0 1 25.5 407.5 L 25.5 416.5  A 1.5 1.5 0 0 1 24 418 L 15 418  A 1.5 1.5 0 0 1 13.5 416.5 L 13.5 407.5  Z " fill-rule="nonzero" fill="#f0f0f0" stroke="none" />
  <path d="M 13.5 407.5  A 1.5 1.5 0 0 1 15 406 L 24 406  A 1.5 1.5 0 0 1 25.5 407.5 L 25.5 416.5  A 1.5 1.5 0 0 1 24 418 L 15 418  A 1.5 1.5 0 0 1 13.5 416.5 L 13.5 407.5  Z " stroke-width="1" stroke="#797979" fill="none" />
  <path d="M 15.785714285714285 412  L 18.571428571428573 414.7857142857143  L 23.214285714285715 408.2857142857143  " stroke-width="2.7857142857142856" stroke="#797979" fill="none" />
</svg>