<?xml version="1.0" encoding="utf-8"?>
<svg version="1.1" xmlns:xlink="http://www.w3.org/1999/xlink" width="13px" height="13px" viewBox="36 104.5  13 13" xmlns="http://www.w3.org/2000/svg">
  <path d="M 36.5 106.5  A 1.5 1.5 0 0 1 38 105 L 47 105  A 1.5 1.5 0 0 1 48.5 106.5 L 48.5 115.5  A 1.5 1.5 0 0 1 47 117 L 38 117  A 1.5 1.5 0 0 1 36.5 115.5 L 36.5 106.5  Z " fill-rule="nonzero" fill="#f0f0f0" stroke="none" />
  <path d="M 36.5 106.5  A 1.5 1.5 0 0 1 38 105 L 47 105  A 1.5 1.5 0 0 1 48.5 106.5 L 48.5 115.5  A 1.5 1.5 0 0 1 47 117 L 38 117  A 1.5 1.5 0 0 1 36.5 115.5 L 36.5 106.5  Z " stroke-width="1" stroke="#797979" fill="none" />
</svg>