<?xml version="1.0" encoding="utf-8"?>
<svg version="1.1" xmlns:xlink="http://www.w3.org/1999/xlink" width="13px" height="13px" viewBox="13 353.5  13 13" xmlns="http://www.w3.org/2000/svg">
  <path d="M 13.5 355.5  A 1.5 1.5 0 0 1 15 354 L 24 354  A 1.5 1.5 0 0 1 25.5 355.5 L 25.5 364.5  A 1.5 1.5 0 0 1 24 366 L 15 366  A 1.5 1.5 0 0 1 13.5 364.5 L 13.5 355.5  Z " fill-rule="nonzero" fill="#ffffff" stroke="none" />
  <path d="M 13.5 355.5  A 1.5 1.5 0 0 1 15 354 L 24 354  A 1.5 1.5 0 0 1 25.5 355.5 L 25.5 364.5  A 1.5 1.5 0 0 1 24 366 L 15 366  A 1.5 1.5 0 0 1 13.5 364.5 L 13.5 355.5  Z " stroke-width="1" stroke="#797979" fill="none" />
  <path d="M 15.785714285714285 360  L 18.571428571428573 362.7857142857143  L 23.214285714285715 356.2857142857143  " stroke-width="2.7857142857142856" stroke="#797979" fill="none" />
</svg>