<?xml version="1.0" encoding="utf-8"?>
<svg version="1.1" xmlns:xlink="http://www.w3.org/1999/xlink" width="13px" height="13px" viewBox="55 191.5  13 13" xmlns="http://www.w3.org/2000/svg">
  <path d="M 55.5 193.5  A 1.5 1.5 0 0 1 57 192 L 66 192  A 1.5 1.5 0 0 1 67.5 193.5 L 67.5 202.5  A 1.5 1.5 0 0 1 66 204 L 57 204  A 1.5 1.5 0 0 1 55.5 202.5 L 55.5 193.5  Z " fill-rule="nonzero" fill="#ffffff" stroke="none" />
  <path d="M 55.5 193.5  A 1.5 1.5 0 0 1 57 192 L 66 192  A 1.5 1.5 0 0 1 67.5 193.5 L 67.5 202.5  A 1.5 1.5 0 0 1 66 204 L 57 204  A 1.5 1.5 0 0 1 55.5 202.5 L 55.5 193.5  Z " stroke-width="1" stroke="#797979" fill="none" />
  <path d="M 57.785714285714285 198  L 60.57142857142857 200.7857142857143  L 65.21428571428571 194.28571428571428  " stroke-width="2.7857142857142856" stroke="#797979" fill="none" />
</svg>