<?xml version="1.0" encoding="utf-8"?>
<svg version="1.1" xmlns:xlink="http://www.w3.org/1999/xlink" width="13px" height="13px" viewBox="152 1106.5  13 13" xmlns="http://www.w3.org/2000/svg">
  <path d="M 152.5 1108.5  A 1.5 1.5 0 0 1 154 1107 L 163 1107  A 1.5 1.5 0 0 1 164.5 1108.5 L 164.5 1117.5  A 1.5 1.5 0 0 1 163 1119 L 154 1119  A 1.5 1.5 0 0 1 152.5 1117.5 L 152.5 1108.5  Z " fill-rule="nonzero" fill="#ffffff" stroke="none" />
  <path d="M 152.5 1108.5  A 1.5 1.5 0 0 1 154 1107 L 163 1107  A 1.5 1.5 0 0 1 164.5 1108.5 L 164.5 1117.5  A 1.5 1.5 0 0 1 163 1119 L 154 1119  A 1.5 1.5 0 0 1 152.5 1117.5 L 152.5 1108.5  Z " stroke-width="1" stroke="#797979" fill="none" />
</svg>