<?xml version="1.0" encoding="utf-8"?>
<svg version="1.1" xmlns:xlink="http://www.w3.org/1999/xlink" width="13px" height="13px" viewBox="152 1153.5  13 13" xmlns="http://www.w3.org/2000/svg">
  <path d="M 152.5 1155.5  A 1.5 1.5 0 0 1 154 1154 L 163 1154  A 1.5 1.5 0 0 1 164.5 1155.5 L 164.5 1164.5  A 1.5 1.5 0 0 1 163 1166 L 154 1166  A 1.5 1.5 0 0 1 152.5 1164.5 L 152.5 1155.5  Z " fill-rule="nonzero" fill="#f0f0f0" stroke="none" />
  <path d="M 152.5 1155.5  A 1.5 1.5 0 0 1 154 1154 L 163 1154  A 1.5 1.5 0 0 1 164.5 1155.5 L 164.5 1164.5  A 1.5 1.5 0 0 1 163 1166 L 154 1166  A 1.5 1.5 0 0 1 152.5 1164.5 L 152.5 1155.5  Z " stroke-width="1" stroke="#797979" fill="none" />
</svg>