<?xml version="1.0" encoding="utf-8"?>
<svg version="1.1" xmlns:xlink="http://www.w3.org/1999/xlink" width="13px" height="13px" viewBox="152 1130.5  13 13" xmlns="http://www.w3.org/2000/svg">
  <path d="M 152.5 1132.5  A 1.5 1.5 0 0 1 154 1131 L 163 1131  A 1.5 1.5 0 0 1 164.5 1132.5 L 164.5 1141.5  A 1.5 1.5 0 0 1 163 1143 L 154 1143  A 1.5 1.5 0 0 1 152.5 1141.5 L 152.5 1132.5  Z " fill-rule="nonzero" fill="#ffffff" stroke="none" />
  <path d="M 152.5 1132.5  A 1.5 1.5 0 0 1 154 1131 L 163 1131  A 1.5 1.5 0 0 1 164.5 1132.5 L 164.5 1141.5  A 1.5 1.5 0 0 1 163 1143 L 154 1143  A 1.5 1.5 0 0 1 152.5 1141.5 L 152.5 1132.5  Z " stroke-width="1" stroke="#797979" fill="none" />
  <path d="M 154.78571428571428 1137  L 157.57142857142858 1139.7857142857144  L 162.21428571428572 1133.2857142857142  " stroke-width="2.7857142857142856" stroke="#797979" fill="none" />
</svg>