<?xml version="1.0" encoding="utf-8"?>
<svg version="1.1" xmlns:xlink="http://www.w3.org/1999/xlink" width="7px" height="12px" xmlns="http://www.w3.org/2000/svg">
  <g transform="matrix(1 0 0 1 -47 -143 )">
    <path d="M 6.769097222222221 5.47265625  C 6.923032407407408 5.62109375  7 5.796875  7 6  C 7 6.203124999999999  6.923032407407408 6.378906249999999  6.769097222222221 6.52734375  L 1.3246527777777777 11.77734375  C 1.1707175925925926 11.92578125  0.988425925925926 12  0.7777777777777777 12  C 0.5671296296296298 12  0.38483796296296297 11.92578125  0.2309027777777778 11.77734375  C 0.07696759259259259 11.62890625  0 11.453125  0 11.25  L 0 0.75  C 0 0.5468749999999982  0.07696759259259259 0.3710937499999982  0.2309027777777778 0.22265625  C 0.38483796296296297 0.07421874999999911  0.5671296296296298 0  0.7777777777777777 0  C 0.988425925925926 0  1.1707175925925926 0.07421874999999911  1.3246527777777777 0.22265625  L 6.769097222222221 5.47265625  Z " fill-rule="nonzero" fill="#617385" stroke="none" transform="matrix(1 0 0 1 47 143 )" />
  </g>
</svg>