<?xml version="1.0" encoding="utf-8"?>
<svg version="1.1" xmlns:xlink="http://www.w3.org/1999/xlink" width="12px" height="13px" xmlns="http://www.w3.org/2000/svg">
  <g transform="matrix(1 0 0 1 -442 -7 )">
    <path d="M 4.286931818181818 4.951171875  C 4.338068181818182 5.001953125  4.363636363636363 5.066840277777778  4.363636363636363 5.145833333333334  L 4.363636363636363 10.020833333333334  C 4.363636363636363 10.09982638888889  4.338068181818182 10.164713541666666  4.286931818181818 10.215494791666666  C 4.235795454545454 10.266276041666666  4.170454545454546 10.291666666666666  4.090909090909091 10.291666666666666  L 3.545454545454546 10.291666666666666  C 3.4659090909090917 10.291666666666666  3.4005681818181825 10.266276041666666  3.3494318181818183 10.215494791666666  C 3.298295454545454 10.164713541666666  3.2727272727272725 10.09982638888889  3.2727272727272725 10.020833333333334  L 3.2727272727272725 5.145833333333334  C 3.2727272727272725 5.066840277777778  3.298295454545454 5.001953125  3.3494318181818183 4.951171875  C 3.4005681818181825 4.900390625  3.4659090909090917 4.875  3.545454545454546 4.875  L 4.090909090909091 4.875  C 4.170454545454546 4.875  4.235795454545454 4.900390625  4.286931818181818 4.951171875  Z M 6.46875 4.951171875  C 6.519886363636363 5.001953125  6.545454545454545 5.066840277777778  6.545454545454545 5.145833333333334  L 6.545454545454545 10.020833333333334  C 6.545454545454545 10.09982638888889  6.519886363636363 10.164713541666666  6.46875 10.215494791666666  C 6.417613636363637 10.266276041666666  6.352272727272728 10.291666666666666  6.2727272727272725 10.291666666666666  L 5.7272727272727275 10.291666666666666  C 5.647727272727273 10.291666666666666  5.582386363636363 10.266276041666666  5.53125 10.215494791666666  C 5.480113636363637 10.164713541666666  5.454545454545454 10.09982638888889  5.454545454545454 10.020833333333334  L 5.454545454545454 5.145833333333334  C 5.454545454545454 5.066840277777778  5.480113636363637 5.001953125  5.53125 4.951171875  C 5.582386363636363 4.900390625  5.647727272727273 4.875  5.7272727272727275 4.875  L 6.2727272727272725 4.875  C 6.352272727272728 4.875  6.417613636363637 4.900390625  6.46875 4.951171875  Z M 8.650568181818182 4.951171875  C 8.701704545454545 5.001953125  8.727272727272727 5.066840277777778  8.727272727272727 5.145833333333334  L 8.727272727272727 10.020833333333334  C 8.727272727272727 10.09982638888889  8.701704545454545 10.164713541666666  8.650568181818182 10.215494791666666  C 8.599431818181818 10.266276041666666  8.53409090909091 10.291666666666666  8.454545454545455 10.291666666666666  L 7.909090909090908 10.291666666666666  C 7.829545454545455 10.291666666666666  7.764204545454545 10.266276041666666  7.713068181818182 10.215494791666666  C 7.661931818181818 10.164713541666666  7.636363636363637 10.09982638888889  7.636363636363637 10.020833333333334  L 7.636363636363637 5.145833333333334  C 7.636363636363637 5.066840277777778  7.661931818181818 5.001953125  7.713068181818182 4.951171875  C 7.764204545454545 4.900390625  7.829545454545455 4.875  7.909090909090908 4.875  L 8.454545454545455 4.875  C 8.53409090909091 4.875  8.599431818181818 4.900390625  8.650568181818182 4.951171875  Z M 9.758522727272727 11.6162109375  C 9.798295454545455 11.511827256944445  9.818181818181818 11.397569444444445  9.818181818181818 11.2734375  L 9.818181818181818 3.25  L 2.1818181818181817 3.25  L 2.1818181818181817 11.2734375  C 2.1818181818181817 11.397569444444445  2.201704545454546 11.511827256944445  2.241477272727273 11.6162109375  C 2.28125 11.720594618055555  2.3224431818181817 11.796766493055555  2.3650568181818183 11.8447265625  C 2.4076704545454546 11.892686631944445  2.4375 11.916666666666666  2.4545454545454546 11.916666666666666  L 9.545454545454545 11.916666666666666  C 9.5625 11.916666666666666  9.592329545454545 11.892686631944445  9.634943181818182 11.8447265625  C 9.677556818181818 11.796766493055555  9.718750000000002 11.720594618055555  9.758522727272727 11.6162109375  Z M 4.5085227272727275 1.176432291666666  L 4.090909090909091 2.166666666666666  L 7.909090909090908 2.166666666666666  L 7.5 1.176432291666666  C 7.460227272727274 1.125651041666666  7.411931818181818 1.094618055555555  7.355113636363637 1.083333333333334  L 4.653409090909091 1.083333333333334  C 4.596590909090909 1.094618055555555  4.548295454545455 1.125651041666666  4.5085227272727275 1.176432291666666  Z M 11.923295454545455 2.242838541666666  C 11.974431818181818 2.293619791666666  12 2.3585069444444438  12 2.4375  L 12 2.979166666666666  C 12 3.058159722222221  11.974431818181818 3.123046875  11.923295454545455 3.173828125  C 11.872159090909092 3.224609375  11.806818181818183 3.25  11.727272727272727 3.25  L 10.909090909090908 3.25  L 10.909090909090908 11.2734375  C 10.909090909090908 11.741753472222221  10.775568181818183 12.146592881944445  10.508522727272727 12.487955729166666  C 10.241477272727273 12.82931857638889  9.920454545454545 13  9.545454545454545 13  L 2.4545454545454546 13  C 2.0795454545454546 13  1.7585227272727275 12.8349609375  1.4914772727272727 12.5048828125  C 1.2244318181818183 12.1748046875  1.0909090909090908 11.77560763888889  1.0909090909090908 11.307291666666666  L 1.0909090909090908 3.25  L 0.2727272727272727 3.25  C 0.19318181818181818 3.25  0.12784090909090912 3.224609375  0.07670454545454546 3.173828125  C 0.025568181818181816 3.123046875  0 3.058159722222221  0 2.979166666666666  L 0 2.4375  C 0 2.3585069444444438  0.025568181818181816 2.293619791666666  0.07670454545454546 2.242838541666666  C 0.12784090909090912 2.192057291666666  0.19318181818181818 2.166666666666666  0.2727272727272727 2.166666666666666  L 2.90625 2.166666666666666  L 3.502840909090909 0.7532552083333338  C 3.5880681818181825 0.5444878472222211  3.7414772727272734 0.3667534722222211  3.9630681818181817 0.22005208333333381  C 4.184659090909092 0.07335069444444364  4.409090909090909 0  4.636363636363637 0  L 7.363636363636363 0  C 7.590909090909092 0  7.815340909090908 0.07335069444444364  8.036931818181818 0.22005208333333381  C 8.258522727272727 0.3667534722222211  8.411931818181818 0.5444878472222211  8.497159090909092 0.7532552083333338  L 9.09375 2.166666666666666  L 11.727272727272727 2.166666666666666  C 11.806818181818183 2.166666666666666  11.872159090909092 2.192057291666666  11.923295454545455 2.242838541666666  Z " fill-rule="nonzero" fill="#000000" stroke="none" transform="matrix(1 0 0 1 442 7 )" />
  </g>
</svg>