<?xml version="1.0" encoding="utf-8"?>
<svg version="1.1" xmlns:xlink="http://www.w3.org/1999/xlink" width="8px" height="4px" xmlns="http://www.w3.org/2000/svg">
  <g transform="matrix(1 0 0 1 -20 -6 )">
    <path d="M 7.8515625 0.13194444444444464  C 7.950520833333334 0.219907407407407  8 0.32407407407407307  8 0.44444444444444464  C 8 0.5648148148148144  7.950520833333334 0.668981481481481  7.8515625 0.7569444444444446  L 4.3515625 3.8680555555555554  C 4.252604166666667 3.956018518518519  4.135416666666667 4  4 4  C 3.864583333333334 4  3.747395833333334 3.956018518518519  3.6484375 3.8680555555555554  L 0.1484375 0.7569444444444446  C 0.049479166666666664 0.668981481481481  0 0.5648148148148144  0 0.44444444444444464  C 0 0.32407407407407307  0.049479166666666664 0.219907407407407  0.1484375 0.13194444444444464  C 0.24739583333333334 0.043981481481480955  0.36458333333333337 0  0.5 0  L 7.5 0  C 7.635416666666667 0  7.752604166666667 0.043981481481480955  7.8515625 0.13194444444444464  Z " fill-rule="nonzero" fill="#000000" stroke="none" transform="matrix(1 0 0 1 20 6 )" />
  </g>
</svg>