<?xml version="1.0" encoding="utf-8"?>
<svg version="1.1" xmlns:xlink="http://www.w3.org/1999/xlink" width="16px" height="16px" xmlns="http://www.w3.org/2000/svg">
  <g>
    <path d="M 4.892857142857143 0.6339285714285712  C 5.880952380952381 0.21130952380952372  6.916666666666667 0  8 0  C 9.083333333333334 0  10.11904761904762 0.21130952380952372  11.107142857142858 0.6339285714285712  C 12.095238095238097 1.0565476190476186  12.946428571428571 1.625  13.660714285714286 2.3392857142857135  C 14.375000000000002 3.053571428571429  14.943452380952383 3.9047619047619033  15.366071428571429 4.892857142857142  C 15.788690476190478 5.88095238095238  16 6.916666666666666  16 8  C 16 9.077380952380953  15.790178571428571 10.110119047619047  15.370535714285714 11.098214285714285  C 14.950892857142858 12.086309523809526  14.383928571428571 12.9375  13.669642857142858 13.651785714285715  C 12.955357142857142 14.366071428571429  12.104166666666668 14.936011904761903  11.116071428571429 15.361607142857142  C 10.127976190476192 15.787202380952381  9.089285714285714 16  8 16  C 6.910714285714286 16  5.87202380952381 15.788690476190476  4.883928571428571 15.366071428571429  C 3.8958333333333335 14.943452380952381  3.0461309523809526 14.373511904761903  2.3348214285714284 13.65625  C 1.6235119047619047 12.938988095238095  1.056547619047619 12.087797619047619  0.6339285714285714 11.102678571428571  C 0.21130952380952378 10.117559523809522  0 9.083333333333332  0 8  C 0 6.916666666666666  0.21130952380952378 5.88095238095238  0.6339285714285714 4.892857142857142  C 1.056547619047619 3.9047619047619033  1.625 3.053571428571429  2.3392857142857144 2.3392857142857135  C 3.0535714285714284 1.625  3.904761904761905 1.0565476190476186  4.892857142857143 0.6339285714285712  Z M 10.794642857142858 9.142857142857142  C 12.223214285714286 9.142857142857142  13.133928571428571 10.116071428571429  13.526785714285714 12.0625  C 14.413690476190478 10.842261904761905  14.857142857142858 9.488095238095237  14.857142857142858 8  C 14.857142857142858 7.071428571428571  14.675595238095239 6.184523809523808  14.3125 5.3392857142857135  C 13.949404761904763 4.494047619047619  13.461309523809527 3.7648809523809508  12.848214285714286 3.1517857142857135  C 12.23511904761905 2.5386904761904763  11.505952380952381 2.0505952380952372  10.660714285714286 1.6875  C 9.815476190476192 1.324404761904761  8.928571428571429 1.1428571428571423  8 1.1428571428571423  C 7.071428571428571 1.1428571428571423  6.18452380952381 1.324404761904761  5.339285714285714 1.6875  C 4.4940476190476195 2.0505952380952372  3.764880952380953 2.5386904761904763  3.1517857142857144 3.1517857142857135  C 2.5386904761904767 3.7648809523809508  2.050595238095238 4.494047619047619  1.6875 5.3392857142857135  C 1.324404761904762 6.184523809523808  1.1428571428571428 7.071428571428571  1.1428571428571428 8  C 1.1428571428571428 9.488095238095237  1.586309523809524 10.842261904761905  2.4732142857142856 12.0625  C 2.8660714285714284 10.116071428571429  3.7767857142857144 9.142857142857142  5.205357142857143 9.142857142857142  C 5.985119047619048 9.904761904761905  6.916666666666667 10.285714285714285  8 10.285714285714285  C 9.083333333333334 10.285714285714285  10.014880952380953 9.904761904761905  10.794642857142858 9.142857142857142  Z M 10.424107142857142 8.709821428571429  C 11.09375 8.040178571428571  11.428571428571429 7.232142857142858  11.428571428571429 6.2857142857142865  C 11.428571428571429 5.3392857142857135  11.09375 4.53125  10.424107142857142 3.8616071428571423  C 9.754464285714286 3.1919642857142865  8.946428571428571 2.8571428571428577  8 2.8571428571428577  C 7.053571428571429 2.8571428571428577  6.245535714285714 3.1919642857142865  5.575892857142857 3.8616071428571423  C 4.90625 4.53125  4.571428571428571 5.3392857142857135  4.571428571428571 6.2857142857142865  C 4.571428571428571 7.232142857142858  4.90625 8.040178571428571  5.575892857142857 8.709821428571429  C 6.245535714285714 9.379464285714285  7.053571428571429 9.714285714285715  8 9.714285714285715  C 8.946428571428571 9.714285714285715  9.754464285714286 9.379464285714285  10.424107142857142 8.709821428571429  Z " fill-rule="nonzero" fill="#617385" stroke="none" />
  </g>
</svg>