<?xml version="1.0" encoding="utf-8"?>
<svg version="1.1" xmlns:xlink="http://www.w3.org/1999/xlink" width="15px" height="16px" xmlns="http://www.w3.org/2000/svg">
  <g>
    <path d="M 7.5 15.285714285714286  C 7.596153846153848 15.285714285714286  7.64423076923077 15.238095238095239  7.644230769230768 15.142857142857142  C 7.64423076923077 15.047619047619047  7.596153846153848 15  7.5 15  C 7.1454326923076925 15  6.840444711538463 14.873511904761903  6.5850360576923075 14.620535714285714  C 6.329627403846154 14.367559523809524  6.201923076923077 14.06547619047619  6.201923076923077 13.714285714285715  C 6.201923076923077 13.619047619047619  6.153846153846154 13.571428571428571  6.0576923076923075 13.571428571428571  C 5.961538461538462 13.571428571428571  5.913461538461538 13.619047619047619  5.913461538461538 13.714285714285715  C 5.913461538461538 14.148809523809524  6.068209134615385 14.519345238095239  6.377704326923077 14.825892857142858  C 6.68719951923077 15.132440476190476  7.0612980769230775 15.285714285714286  7.5 15.285714285714286  Z M 14.1796875 11.785714285714285  C 14.426081730769232 12.05952380952381  14.699519230769232 12.321428571428571  15 12.571428571428571  C 15.000000000000004 12.880952380952381  14.885817307692308 13.148809523809526  14.657451923076923 13.375  C 14.42908653846154 13.601190476190474  14.158653846153847 13.714285714285715  13.846153846153847 13.714285714285715  L 9.807692307692308 13.714285714285715  C 9.807692307692308 14.345238095238097  9.582331730769232 14.883928571428571  9.131610576923077 15.330357142857142  C 8.680889423076923 15.776785714285714  8.137019230769232 16  7.5 16  C 6.86298076923077 16  6.319110576923077 15.776785714285714  5.868389423076923 15.330357142857142  C 5.417668269230769 14.883928571428571  5.1923076923076925 14.345238095238097  5.1923076923076925 13.714285714285715  L 1.153846153846154 13.714285714285715  C 0.841346153846154 13.714285714285715  0.5709134615384616 13.601190476190474  0.3425480769230769 13.375  C 0.11418269230769235 13.148809523809526  0 12.880952380952381  0 12.571428571428571  C 0.30048076923076933 12.321428571428571  0.5739182692307694 12.05952380952381  0.8203125 11.785714285714285  C 1.0667067307692308 11.511904761904761  1.3221153846153848 11.15625  1.5865384615384615 10.71875  C 1.8509615384615388 10.28125  2.0748197115384617 9.809523809523808  2.258112980769231 9.303571428571429  C 2.4414062500000004 8.797619047619047  2.5916466346153846 8.18452380952381  2.7088341346153846 7.4642857142857135  C 2.8260216346153846 6.744047619047619  2.8846153846153846 5.970238095238093  2.8846153846153846 5.142857142857142  C 2.8846153846153846 4.238095238095237  3.2361778846153846 3.397321428571429  3.939302884615384 2.6205357142857135  C 4.642427884615384 1.84375  5.564903846153847 1.3720238095238084  6.706730769230769 1.2053571428571423  C 6.658653846153847 1.0922619047619033  6.634615384615384 0.9761904761904763  6.634615384615384 0.8571428571428577  C 6.634615384615384 0.6190476190476186  6.71875 0.4166666666666661  6.887019230769231 0.25  C 7.055288461538463 0.08333333333333393  7.259615384615385 0  7.5 0  C 7.740384615384616 0  7.94471153846154 0.08333333333333393  8.112980769230768 0.25  C 8.28125 0.4166666666666661  8.365384615384615 0.6190476190476186  8.365384615384615 0.8571428571428577  C 8.365384615384615 0.9761904761904763  8.341346153846153 1.0922619047619033  8.293269230769232 1.2053571428571423  C 9.435096153846155 1.3720238095238084  10.357572115384615 1.84375  11.060697115384615 2.6205357142857135  C 11.763822115384615 3.397321428571429  12.115384615384615 4.238095238095237  12.115384615384615 5.142857142857142  C 12.115384615384615 5.970238095238093  12.173978365384615 6.744047619047619  12.291165865384615 7.4642857142857135  C 12.408353365384615 8.18452380952381  12.55859375 8.797619047619047  12.741887019230768 9.303571428571429  C 12.92518028846154 9.809523809523808  13.149038461538462 10.28125  13.413461538461538 10.71875  C 13.677884615384617 11.15625  13.933293269230772 11.511904761904761  14.1796875 11.785714285714285  Z " fill-rule="nonzero" fill="#617385" stroke="none" />
  </g>
</svg>