<?xml version="1.0" encoding="utf-8"?>
<svg version="1.1" xmlns:xlink="http://www.w3.org/1999/xlink" width="13px" height="15px" xmlns="http://www.w3.org/2000/svg">
  <g transform="matrix(1 0 0 1 -355 -85 )">
    <path d="M 9.783854166666666 0.569196428571429  L 12.424479166666666 3.180803571428571  C 12.582465277777779 3.3370535714285703  12.717881944444445 3.5491071428571437  12.830729166666666 3.8169642857142856  C 12.94357638888889 4.084821428571429  13 4.330357142857142  13 4.553571428571429  L 13 14.196428571428571  C 13 14.419642857142858  12.921006944444443 14.609374999999998  12.763020833333334 14.765625  C 12.605034722222223 14.921875000000002  12.413194444444445 15  12.1875 15  L 0.8125 15  C 0.5868055555555556 15  0.3949652777777778 14.921875000000002  0.23697916666666669 14.765625  C 0.07899305555555555 14.609374999999998  0 14.419642857142858  0 14.196428571428571  L 0 0.803571428571429  C 0 0.5803571428571425  0.07899305555555555 0.39062499999999944  0.23697916666666669 0.234375  C 0.3949652777777778 0.07812500000000056  0.5868055555555556 0  0.8125 0  L 8.395833333333334 0  C 8.621527777777779 0  8.869791666666666 0.05580357142857206  9.140625 0.16741071428571452  C 9.411458333333334 0.279017857142857  9.625868055555557 0.41294642857142794  9.783854166666666 0.569196428571429  Z M 9.013671875 1.3225446428571437  C 8.945963541666666 1.2555803571428563  8.83029513888889 1.1941964285714268  8.666666666666666 1.1383928571428563  L 8.666666666666666 4.285714285714286  L 11.848958333333334 4.285714285714286  C 11.792534722222223 4.123883928571427  11.73046875 4.009486607142857  11.662760416666666 3.942522321428571  L 9.013671875 1.3225446428571437  Z M 1 14  L 11.916666666666666 14  L 11.916666666666666 5.357142857142857  L 8.395833333333334 5.357142857142857  C 8.17013888888889 5.357142857142857  7.978298611111112 5.279017857142856  7.8203125 5.122767857142857  C 7.662326388888888 4.966517857142857  7.583333333333334 4.776785714285713  7.583333333333334 4.553571428571429  L 7.583333333333334 1.071428571428571  L 1 1.071428571428571  L 1 14  Z M 3.25 7.232142857142857  L 3.25 6.696428571428571  C 3.25 6.61830357142857  3.275390625 6.554129464285714  3.326171875 6.50390625  C 3.376953125000001 6.453683035714286  3.441840277777778 6.428571428571429  3.520833333333333 6.428571428571429  L 9.479166666666666 6.428571428571429  C 9.558159722222223 6.428571428571429  9.623046875 6.453683035714286  9.673828125 6.50390625  C 9.724609375 6.554129464285714  9.75 6.61830357142857  9.75 6.696428571428571  L 9.75 7.232142857142857  C 9.75 7.310267857142857  9.724609375 7.374441964285714  9.673828125 7.424665178571429  C 9.623046875 7.474888392857143  9.558159722222223 7.5  9.479166666666666 7.5  L 3.520833333333333 7.5  C 3.441840277777778 7.5  3.376953125000001 7.474888392857143  3.326171875 7.424665178571429  C 3.275390625 7.374441964285714  3.25 7.310267857142857  3.25 7.232142857142857  Z M 3.520833333333333 8.571428571428571  L 9.479166666666666 8.571428571428571  C 9.558159722222223 8.571428571428571  9.623046875 8.596540178571429  9.673828125 8.646763392857142  C 9.724609375 8.696986607142858  9.75 8.761160714285714  9.75 8.839285714285715  L 9.75 9.375  C 9.75 9.453124999999998  9.724609375 9.517299107142858  9.673828125 9.567522321428571  C 9.623046875 9.617745535714285  9.558159722222223 9.642857142857142  9.479166666666666 9.642857142857142  L 3.520833333333333 9.642857142857142  C 3.441840277777778 9.642857142857142  3.376953125000001 9.617745535714285  3.326171875 9.567522321428571  C 3.275390625 9.517299107142858  3.25 9.453124999999998  3.25 9.375  L 3.25 8.839285714285715  C 3.25 8.761160714285714  3.275390625 8.696986607142858  3.326171875 8.646763392857142  C 3.376953125000001 8.596540178571429  3.441840277777778 8.571428571428571  3.520833333333333 8.571428571428571  Z M 3.520833333333333 10.714285714285715  L 9.479166666666666 10.714285714285715  C 9.558159722222223 10.714285714285715  9.623046875 10.739397321428571  9.673828125 10.789620535714285  C 9.724609375 10.83984375  9.75 10.904017857142858  9.75 10.982142857142858  L 9.75 11.517857142857142  C 9.75 11.595982142857142  9.724609375 11.66015625  9.673828125 11.710379464285715  C 9.623046875 11.760602678571429  9.558159722222223 11.785714285714285  9.479166666666666 11.785714285714285  L 3.520833333333333 11.785714285714285  C 3.441840277777778 11.785714285714285  3.376953125000001 11.760602678571429  3.326171875 11.710379464285715  C 3.275390625 11.66015625  3.25 11.595982142857142  3.25 11.517857142857142  L 3.25 10.982142857142858  C 3.25 10.904017857142858  3.275390625 10.83984375  3.326171875 10.789620535714285  C 3.376953125000001 10.739397321428571  3.441840277777778 10.714285714285715  3.520833333333333 10.714285714285715  Z " fill-rule="nonzero" fill="#ffffff" stroke="none" transform="matrix(1 0 0 1 355 85 )" />
  </g>
</svg>