<?xml version="1.0" encoding="utf-8"?>
<svg version="1.1" xmlns:xlink="http://www.w3.org/1999/xlink" width="223px" height="122px" xmlns="http://www.w3.org/2000/svg">
  <defs>
    <filter x="-12px" y="15px" width="223px" height="122px" filterUnits="userSpaceOnUse" id="filter343">
      <feOffset dx="0" dy="6" in="SourceAlpha" result="shadowOffsetInner" />
      <feGaussianBlur stdDeviation="6" in="shadowOffsetInner" result="shadowGaussian" />
      <feComposite in2="shadowGaussian" operator="atop" in="SourceAlpha" result="shadowComposite" />
      <feColorMatrix type="matrix" values="0 0 0 0 0  0 0 0 0 0  0 0 0 0 0  0 0 0 0.16862745098039217 0  " in="shadowComposite" />
    </filter>
    <g id="widget344">
      <path d="M 1 25  A 3 3 0 0 1 3.999999999999999 22 L 195 22  A 3 3 0 0 1 198 25 L 198 115  A 3 3 0 0 1 195 118 L 4 118  A 3 3 0 0 1 1 115 L 1 25  Z " fill-rule="nonzero" fill="#ffffff" stroke="none" />
      <path d="M 0.5 25  A 3.5 3.5 0 0 1 3.999999999999999 21.5 L 195 21.5  A 3.5 3.5 0 0 1 198.5 25 L 198.5 115  A 3.5 3.5 0 0 1 195 118.5 L 4 118.5  A 3.5 3.5 0 0 1 0.5 115 L 0.5 25  Z " stroke-width="1" stroke="#000000" fill="none" stroke-opacity="0.14901960784313725" />
    </g>
  </defs>
  <g transform="matrix(1 0 0 1 12 -15 )">
    <use xlink:href="#widget344" filter="url(#filter343)" />
    <use xlink:href="#widget344" />
  </g>
</svg>