<?xml version="1.0" encoding="utf-8"?>
<svg version="1.1" xmlns:xlink="http://www.w3.org/1999/xlink" width="8px" height="9px" xmlns="http://www.w3.org/2000/svg">
  <g transform="matrix(1 0 0 1 -185 -40 )">
    <path d="M 2.8579545454545454 3.427734375  C 2.8920454545454546 3.462890625  2.909090909090909 3.5078125  2.909090909090909 3.5625000000000004  L 2.909090909090909 6.9375  C 2.909090909090909 6.9921875  2.8920454545454546 7.037109375  2.8579545454545454 7.072265625  C 2.8238636363636362 7.107421875  2.7803030303030307 7.125  2.727272727272727 7.125  L 2.3636363636363638 7.125  C 2.310606060606061 7.125  2.267045454545455 7.107421875  2.2329545454545454 7.072265625  C 2.1988636363636362 7.037109375  2.1818181818181817 6.9921875  2.1818181818181817 6.9375  L 2.1818181818181817 3.5625000000000004  C 2.1818181818181817 3.5078125  2.1988636363636362 3.462890625  2.2329545454545454 3.427734375  C 2.267045454545455 3.392578125  2.310606060606061 3.375  2.3636363636363638 3.375  L 2.727272727272727 3.375  C 2.7803030303030307 3.375  2.8238636363636362 3.392578125  2.8579545454545454 3.427734375  Z M 4.3125 3.427734375  C 4.346590909090909 3.462890625  4.363636363636363 3.5078125  4.363636363636363 3.5625000000000004  L 4.363636363636363 6.9375  C 4.363636363636363 6.9921875  4.346590909090909 7.037109375  4.3125 7.072265625  C 4.278409090909091 7.107421875  4.234848484848485 7.125  4.181818181818182 7.125  L 3.8181818181818183 7.125  C 3.7651515151515156 7.125  3.721590909090909 7.107421875  3.6875 7.072265625  C 3.653409090909091 7.037109375  3.6363636363636362 6.9921875  3.6363636363636362 6.9375  L 3.6363636363636362 3.5625000000000004  C 3.6363636363636362 3.5078125  3.653409090909091 3.462890625  3.6875 3.427734375  C 3.721590909090909 3.392578125  3.7651515151515156 3.375  3.8181818181818183 3.375  L 4.181818181818182 3.375  C 4.234848484848485 3.375  4.278409090909091 3.392578125  4.3125 3.427734375  Z M 5.767045454545454 3.427734375  C 5.801136363636363 3.462890625  5.818181818181818 3.5078125  5.818181818181818 3.5625000000000004  L 5.818181818181818 6.9375  C 5.818181818181818 6.9921875  5.801136363636363 7.037109375  5.767045454545454 7.072265625  C 5.732954545454546 7.107421875  5.6893939393939394 7.125  5.636363636363637 7.125  L 5.2727272727272725 7.125  C 5.21969696969697 7.125  5.176136363636363 7.107421875  5.142045454545454 7.072265625  C 5.107954545454546 7.037109375  5.090909090909091 6.9921875  5.090909090909091 6.9375  L 5.090909090909091 3.5625000000000004  C 5.090909090909091 3.5078125  5.107954545454546 3.462890625  5.142045454545454 3.427734375  C 5.176136363636363 3.392578125  5.21969696969697 3.375  5.2727272727272725 3.375  L 5.636363636363637 3.375  C 5.6893939393939394 3.375  5.732954545454546 3.392578125  5.767045454545454 3.427734375  Z M 6.505681818181818 8.0419921875  C 6.53219696969697 7.9697265625  6.545454545454546 7.890625  6.545454545454546 7.8046875  L 6.545454545454546 2.25  L 1.4545454545454546 2.25  L 1.4545454545454546 7.8046875  C 1.4545454545454546 7.890625  1.4678030303030305 7.9697265625  1.4943181818181819 8.0419921875  C 1.5208333333333335 8.1142578125  1.5482954545454546 8.1669921875  1.5767045454545454 8.2001953125  C 1.6051136363636365 8.2333984375  1.625 8.25  1.6363636363636365 8.25  L 6.363636363636363 8.25  C 6.375 8.25  6.394886363636363 8.2333984375  6.423295454545454 8.2001953125  C 6.451704545454546 8.1669921875  6.479166666666668 8.1142578125  6.505681818181818 8.0419921875  Z M 3.0056818181818183 0.8144531249999997  L 2.727272727272727 1.4999999999999996  L 5.2727272727272725 1.4999999999999996  L 5 0.8144531249999997  C 4.9734848484848495 0.7792968749999997  4.941287878787879 0.7578124999999996  4.903409090909091 0.7500000000000003  L 3.102272727272727 0.7500000000000003  C 3.0643939393939394 0.7578124999999996  3.03219696969697 0.7792968749999997  3.0056818181818183 0.8144531249999997  Z M 7.948863636363637 1.5527343749999996  C 7.982954545454546 1.5878906249999996  8 1.6328124999999996  8 1.6875  L 8 2.0624999999999996  C 8 2.117187499999999  7.982954545454546 2.162109375  7.948863636363637 2.197265625  C 7.9147727272727275 2.232421875  7.871212121212122 2.25  7.818181818181818 2.25  L 7.2727272727272725 2.25  L 7.2727272727272725 7.8046875  C 7.2727272727272725 8.12890625  7.183712121212122 8.4091796875  7.005681818181818 8.6455078125  C 6.827651515151516 8.8818359375  6.613636363636363 9  6.363636363636363 9  L 1.6363636363636365 9  C 1.3863636363636365 9  1.172348484848485 8.8857421875  0.9943181818181818 8.6572265625  C 0.8162878787878789 8.4287109375  0.7272727272727273 8.15234375  0.7272727272727273 7.828125  L 0.7272727272727273 2.25  L 0.18181818181818182 2.25  C 0.12878787878787878 2.25  0.08522727272727273 2.232421875  0.05113636363636364 2.197265625  C 0.017045454545454544 2.162109375  0 2.117187499999999  0 2.0624999999999996  L 0 1.6875  C 0 1.6328124999999996  0.017045454545454544 1.5878906249999996  0.05113636363636364 1.5527343749999996  C 0.08522727272727273 1.5175781249999996  0.12878787878787878 1.4999999999999996  0.18181818181818182 1.4999999999999996  L 1.9375 1.4999999999999996  L 2.335227272727273 0.5214843750000003  C 2.392045454545455 0.3769531249999992  2.494318181818182 0.2539062499999992  2.6420454545454546 0.15234375000000033  C 2.7897727272727275 0.050781249999999445  2.9393939393939394 0  3.090909090909091 0  L 4.909090909090909 0  C 5.060606060606061 0  5.2102272727272725 0.050781249999999445  5.357954545454546 0.15234375000000033  C 5.505681818181818 0.2539062499999992  5.607954545454546 0.3769531249999992  5.6647727272727275 0.5214843750000003  L 6.0625 1.4999999999999996  L 7.818181818181818 1.4999999999999996  C 7.871212121212122 1.4999999999999996  7.9147727272727275 1.5175781249999996  7.948863636363637 1.5527343749999996  Z " fill-rule="nonzero" fill="#000000" stroke="none" transform="matrix(1 0 0 1 185 40 )" />
  </g>
</svg>