<?xml version="1.0" encoding="utf-8"?>
<svg version="1.1" xmlns:xlink="http://www.w3.org/1999/xlink" width="16px" height="13px" xmlns="http://www.w3.org/2000/svg">
  <g transform="matrix(1 0 0 1 -11 -86 )">
    <path d="M 13.700123915737299 7.427123928293063  C 13.706732755059893 7.44063393089114  13.71003717472119 7.460898934788257  13.71003717472119 7.487918939984412  L 13.71003717472119 12.351519875292285  C 13.71003717472119 12.527149909067289  13.647253201156548 12.67913743829566  13.521685254027261 12.807482462977397  C 13.396117306897978 12.935827487659132  13.247418422139614 13  13.075588599752168 13  L 9.268897149938041 13  L 9.268897149938041 9.109119251753702  L 6.731102850061958 9.109119251753702  L 6.731102850061958 13  L 2.9244114002478314 13  C 2.7525815778603886 13  2.6038826931020242 12.935827487659132  2.4783147459727384 12.807482462977397  C 2.3527467988434534 12.67913743829566  2.2899628252788102 12.527149909067289  2.2899628252788102 12.351519875292285  L 2.2899628252788102 7.487918939984412  C 2.2899628252788102 7.481163938685372  2.291615035109459 7.471031436736815  2.294919454770756 7.457521434138737  C 2.298223874432053 7.44401143154066  2.2998760842627015 7.433878929592102  2.2998760842627015 7.427123928293063  L 8 2.6243180046765393  L 13.700123915737299 7.427123928293063  Z M 15.990086741016109 6.550662509742791  C 15.996695580338704 6.641855027279813  15.973564642709626 6.721226292543518  15.920693928128872 6.788776305533906  L 15.306071871127633 7.538581449727203  C 15.253201156546883 7.599376461418551  15.183808343659646 7.636528968563264  15.097893432465924 7.650038971161341  L 15.06815365551425 7.650038971161341  C 14.98223874432053 7.650038971161341  14.912845931433294 7.626396466614705  14.85997521685254 7.579111457521433  L 8 1.7326578332034295  L 1.1400247831474597 7.579111457521433  C 1.060718711276332 7.633151467913742  0.9814126394052045 7.656793972460379  0.9021065675340768 7.650038971161341  C 0.8161916563403553 7.636528968563264  0.7467988434531186 7.599376461418551  0.6939281288723668 7.538581449727203  L 0.07930607187112763 6.788776305533906  C 0.02643535729037589 6.721226292543518  0.0033044196612970083 6.641855027279813  0.009913258983890954 6.550662509742791  C 0.016522098306484972 6.459469992205768  0.05287071458075178 6.3868537282411015  0.11895910780669144 6.332813717848792  L 7.246592317224287 0.2634450506625101  C 7.458075175547295 0.08781501688750193  7.709211069805866 0  8 0  C 8.290788930194136 0  8.541924824452707 0.08781501688750193  8.753407682775713 0.2634450506625101  L 11.172242874845105 2.3304754481683547  L 11.172242874845105 0.35463756819953174  C 11.172242874845105 0.260067550012989  11.201982651796778 0.1823850350740447  11.261462205700123 0.12159002338269742  C 11.32094175960347 0.06079501169134871  11.3969434118133 0.030397505845674355  11.489467162329616 0.030397505845674355  L 13.39281288723668 0.030397505845674355  C 13.485336637752996 0.030397505845674355  13.561338289962825 0.06079501169134871  13.62081784386617 0.12159002338269742  C 13.680297397769516 0.1823850350740447  13.71003717472119 0.260067550012989  13.71003717472119 0.35463756819953174  L 13.71003717472119 4.488698363211224  L 15.881040892193308 6.332813717848792  C 15.94712928541925 6.3868537282411015  15.983477901693517 6.459469992205768  15.990086741016109 6.550662509742791  Z " fill-rule="nonzero" fill="#7f7f7f" stroke="none" transform="matrix(1 0 0 1 11 86 )" />
  </g>
</svg>