<?xml version="1.0" encoding="utf-8"?>
<svg version="1.1" xmlns:xlink="http://www.w3.org/1999/xlink" width="16px" height="19px" xmlns="http://www.w3.org/2000/svg">
  <g transform="matrix(1 0 0 1 -155 -83 )">
    <path d="M 15.89375 13.736653645833332  C 15.964583333333334 14.359266493055554  16 15.021050347222221  16 15.722005208333334  C 16 16.62087673611111  15.739583333333334 17.391927083333336  15.21875 18.03515625  C 14.697916666666668 18.678385416666664  14.070833333333335 19  13.3375 19  L 2.6625 19  C 1.9291666666666667 19  1.3020833333333335 18.678385416666664  0.7812500000000001 18.03515625  C 0.26041666666666674 17.391927083333336  0 16.62087673611111  0 15.722005208333334  C 0 15.021050347222221  0.03541666666666675 14.359266493055554  0.1062500000000001 13.736653645833332  C 0.17708333333333343 13.114040798611107  0.3083333333333334 12.4873046875  0.5000000000000001 11.8564453125  C 0.6916666666666669 11.2255859375  0.9354166666666668 10.685438368055555  1.23125 10.236002604166668  C 1.5270833333333336 9.786566840277775  1.91875 9.419596354166666  2.40625 9.135091145833334  C 2.89375 8.8505859375  3.454166666666667 8.708333333333334  4.0875 8.708333333333334  C 5.179166666666667 9.763888888888888  6.483333333333334 10.291666666666668  8 10.291666666666668  C 9.51666666666667 10.291666666666668  10.820833333333335 9.763888888888888  11.9125 8.708333333333334  C 12.545833333333334 8.708333333333334  13.10625 8.8505859375  13.59375 9.135091145833334  C 14.08125 9.419596354166666  14.472916666666668 9.786566840277775  14.76875 10.236002604166668  C 15.064583333333335 10.685438368055555  15.308333333333334 11.2255859375  15.5 11.8564453125  C 15.691666666666668 12.4873046875  15.822916666666668 13.114040798611107  15.89375 13.736653645833332  Z M 11.39375 1.3916015625  C 12.33125 2.3193359375  12.8 3.438802083333334  12.8 4.75  C 12.8 6.061197916666666  12.33125 7.1806640625  11.39375 8.1083984375  C 10.45625 9.0361328125  9.325 9.5  8 9.5  C 6.675 9.5  5.54375 9.0361328125  4.60625 8.1083984375  C 3.66875 7.1806640625  3.2 6.061197916666666  3.2 4.75  C 3.2 3.438802083333334  3.66875 2.3193359375  4.60625 1.3916015625  C 5.54375 0.4638671875  6.675 0  8 0  C 9.325 0  10.45625 0.4638671875  11.39375 1.3916015625  Z " fill-rule="nonzero" fill="#7f7f7f" stroke="none" transform="matrix(1 0 0 1 155 83 )" />
  </g>
</svg>