<?xml version="1.0" encoding="utf-8"?>
<svg version="1.1" xmlns:xlink="http://www.w3.org/1999/xlink" width="16px" height="15px" xmlns="http://www.w3.org/2000/svg">
  <g transform="matrix(1 0 0 1 -267 -85 )">
    <path d="M 15.5625 9.11259541984733  C 15.854166666666668 9.48791348600509  16 9.942748091603054  16 10.477099236641221  C 16 10.992366412213741  15.857371794871796 11.42175572519084  15.572115384615385 11.76526717557252  C 15.286858974358976 12.1087786259542  14.891025641025644 12.280534351145038  14.384615384615385 12.280534351145038  C 14.121794871794872 12.280534351145038  13.873397435897438 12.224872773536894  13.639423076923077 12.11354961832061  C 13.405448717948719 12.002226463104325  13.216346153846153 11.881361323155215  13.072115384615385 11.750954198473282  C 12.927884615384615 11.620547073791347  12.746794871794872 11.499681933842238  12.528846153846153 11.388358778625953  C 12.310897435897438 11.277035623409668  12.083333333333334 11.221374045801527  11.846153846153847 11.221374045801527  C 11.141025641025642 11.221374045801527  10.788461538461538 11.615776081424936  10.788461538461538 12.404580152671755  C 10.788461538461538 12.65267175572519  10.839743589743591 13.018447837150125  10.942307692307692 13.501908396946565  C 11.044871794871796 13.985368956743002  11.092948717948719 14.351145038167939  11.086538461538462 14.599236641221374  L 11.086538461538462 14.646946564885496  C 10.945512820512821 14.646946564885496  10.839743589743591 14.650127226463104  10.76923076923077 14.65648854961832  C 10.551282051282053 14.675572519083971  10.238782051282053 14.712150127226462  9.83173076923077 14.766221374045802  C 9.424679487179487 14.82029262086514  9.05448717948718 14.863231552162851  8.721153846153847 14.895038167938932  C 8.387820512820515 14.926844783715012  8.073717948717949 14.942748091603054  7.778846153846154 14.942748091603054  C 7.387820512820513 14.942748091603054  7.0576923076923075 14.85846055979644  6.788461538461538 14.689885496183205  C 6.519230769230769 14.521310432569974  6.384615384615385 14.255725190839694  6.384615384615385 13.893129770992367  C 6.384615384615385 13.657760814249363  6.440705128205129 13.431933842239186  6.552884615384615 13.215648854961831  C 6.665064102564103 12.999363867684476  6.7868589743589745 12.819656488549619  6.918269230769231 12.676526717557252  C 7.049679487179488 12.533396946564887  7.1714743589743595 12.345737913486005  7.283653846153846 12.11354961832061  C 7.395833333333334 11.881361323155215  7.451923076923077 11.634860050890584  7.451923076923077 11.374045801526718  C 7.451923076923077 10.87150127226463  7.278846153846154 10.478689567430026  6.9326923076923075 10.1956106870229  C 6.586538461538462 9.912531806615775  6.153846153846154 9.770992366412214  5.634615384615385 9.770992366412214  C 5.096153846153846 9.770992366412214  4.637820512820513 9.915712468193384  4.259615384615385 10.205152671755727  C 3.881410256410256 10.494592875318066  3.6923076923076925 10.900127226463104  3.6923076923076925 11.42175572519084  C 3.6923076923076925 11.695292620865137  3.7403846153846154 11.959287531806616  3.8365384615384617 12.213740458015266  C 3.9326923076923084 12.468193384223916  4.040064102564103 12.673346055979643  4.158653846153846 12.829198473282442  C 4.27724358974359 12.985050890585242  4.384615384615385 13.153625954198473  4.480769230769231 13.334923664122138  C 4.576923076923077 13.516221374045802  4.625 13.676844783715012  4.625 13.816793893129772  C 4.625 14.103053435114504  4.477564102564103 14.386132315521628  4.1826923076923075 14.666030534351144  C 3.9455128205128207 14.888676844783713  3.5705128205128207 15  3.0576923076923075 15  C 2.448717948717949 15  1.6634615384615388 14.923664122137405  0.7019230769230769 14.770992366412214  C 0.6442307692307693 14.758269720101781  0.5560897435897436 14.745547073791348  0.4375 14.732824427480915  C 0.31891025641025644 14.720101781170484  0.2307692307692308 14.707379134860052  0.17307692307692307 14.694656488549619  L 0.04807692307692308 14.675572519083971  C 0.04166666666666667 14.675572519083971  0.032051282051282055 14.672391857506362  0.019230769230769232 14.666030534351144  C 0.00641025641025641 14.666030534351144  0 14.662849872773537  0 14.65648854961832  L 0 4.885496183206107  C 0.012820512820512822 4.8918575063613225  0.0689102564102564 4.902989821882951  0.16826923076923078 4.918893129770993  C 0.2676282051282052 4.934796437659031  0.37660256410256415 4.950699745547073  0.4951923076923077 4.966603053435115  C 0.6137820512820513 4.982506361323154  0.6826923076923077 4.993638676844784  0.7019230769230769 5.000000000000001  C 1.6634615384615388 5.152671755725191  2.448717948717949 5.229007633587786  3.0576923076923075 5.229007633587786  C 3.5705128205128207 5.229007633587786  3.9455128205128207 5.117684478371499  4.1826923076923075 4.895038167938932  C 4.477564102564103 4.6151399491094125  4.625 4.332061068702291  4.625 4.045801526717557  C 4.625 3.905852417302798  4.576923076923077 3.7452290076335872  4.480769230769231 3.5639312977099236  C 4.384615384615385 3.38263358778626  4.27724358974359 3.214058524173027  4.158653846153846 3.058206106870229  C 4.040064102564103 2.902353689567429  3.9326923076923084 2.697201017811704  3.8365384615384617 2.4427480916030535  C 3.7403846153846154 2.1882951653944014  3.6923076923076925 1.9243002544529253  3.6923076923076925 1.6507633587786263  C 3.6923076923076925 1.1291348600508906  3.881410256410256 0.7236005089058517  4.259615384615385 0.4341603053435117  C 4.637820512820513 0.14472010178117167  5.0993589743589745 0  5.644230769230769 0  C 6.157051282051283 0  6.586538461538462 0.14153944020356413  6.9326923076923075 0.4246183206106874  C 7.278846153846154 0.7076972010178106  7.451923076923077 1.1005089058524158  7.451923076923077 1.6030534351145032  C 7.451923076923077 1.8638676844783704  7.395833333333334 2.1103689567430015  7.283653846153846 2.3425572519083975  C 7.1714743589743595 2.57474554707379  7.049679487179488 2.7624045801526718  6.918269230769231 2.905534351145038  C 6.7868589743589745 3.0486641221374047  6.665064102564103 3.2283715012722642  6.552884615384615 3.4446564885496187  C 6.440705128205129 3.6609414758269705  6.384615384615385 3.8867684478371496  6.384615384615385 4.122137404580153  C 6.384615384615385 4.484732824427481  6.519230769230769 4.75031806615776  6.788461538461538 4.918893129770993  C 7.0576923076923075 5.087468193384223  7.387820512820513 5.17175572519084  7.778846153846154 5.17175572519084  C 8.189102564102566 5.17175572519084  8.766025641025642 5.1240458015267185  9.509615384615385 5.028625954198473  C 10.25320512820513 4.933206106870228  10.775641025641026 4.879134860050891  11.076923076923077 4.866412213740459  L 11.076923076923077 4.885496183206107  C 11.070512820512821 4.898218829516539  11.059294871794872 4.953880407124681  11.04326923076923 5.052480916030535  C 11.027243589743591 5.151081424936386  11.011217948717949 5.2592239185750635  10.995192307692308 5.376908396946565  C 10.979166666666668 5.494592875318066  10.967948717948719 5.562977099236639  10.961538461538462 5.58206106870229  C 10.807692307692308 6.536259541984732  10.73076923076923 7.3155216284987254  10.73076923076923 7.919847328244274  C 10.73076923076923 8.428753180661577  10.842948717948719 8.80089058524173  11.067307692307692 9.036259541984734  C 11.349358974358976 9.328880407124682  11.634615384615385 9.475190839694656  11.923076923076923 9.475190839694656  C 12.064102564102566 9.475190839694656  12.225961538461538 9.427480916030534  12.408653846153847 9.33206106870229  C 12.591346153846153 9.236641221374047  12.761217948717949 9.130089058524172  12.91826923076923 9.01240458015267  C 13.075320512820515 8.894720101781171  13.282051282051283 8.788167938931299  13.538461538461538 8.692748091603054  C 13.794871794871796 8.59732824427481  14.060897435897438 8.549618320610687  14.336538461538462 8.549618320610687  C 14.862179487179487 8.549618320610687  15.270833333333334 8.737277353689567  15.5625 9.11259541984733  Z " fill-rule="nonzero" fill="#7f7f7f" stroke="none" transform="matrix(1 0 0 1 267 85 )" />
  </g>
</svg>