<?xml version="1.0" encoding="utf-8"?>
<svg version="1.1" xmlns:xlink="http://www.w3.org/1999/xlink" width="14px" height="13px" xmlns="http://www.w3.org/2000/svg">
  <g transform="matrix(1 0 0 1 -640 -86 )">
    <path d="M 14 0  L 14 2.785714285714286  L 13.125 2.785714285714286  L 13.125 10.214285714285714  L 14 10.214285714285714  L 14 13  L 11.375 13  L 11.375 12.071428571428571  L 2.625 12.071428571428571  L 2.625 13  L 0 13  L 0 10.214285714285714  L 0.875 10.214285714285714  L 0.875 2.785714285714286  L 0 2.785714285714286  L 0 0  L 2.625 0  L 2.625 0.9285714285714282  L 11.375 0.9285714285714282  L 11.375 0  L 14 0  Z M 13.125 0.9285714285714282  L 12.25 0.9285714285714282  L 12.25 1.8571428571428577  L 13.125 1.8571428571428577  L 13.125 0.9285714285714282  Z M 1.75 0.9285714285714282  L 0.875 0.9285714285714282  L 0.875 1.8571428571428577  L 1.75 1.8571428571428577  L 1.75 0.9285714285714282  Z M 0.875 12.071428571428571  L 1.75 12.071428571428571  L 1.75 11.142857142857144  L 0.875 11.142857142857144  L 0.875 12.071428571428571  Z M 2.625 11.142857142857144  L 11.375 11.142857142857144  L 11.375 10.214285714285714  L 12.25 10.214285714285714  L 12.25 2.785714285714286  L 11.375 2.785714285714286  L 11.375 1.8571428571428577  L 2.625 1.8571428571428577  L 2.625 2.785714285714286  L 1.75 2.785714285714286  L 1.75 10.214285714285714  L 2.625 10.214285714285714  L 2.625 11.142857142857144  Z M 12.25 12.071428571428571  L 13.125 12.071428571428571  L 13.125 11.142857142857144  L 12.25 11.142857142857144  L 12.25 12.071428571428571  Z M 8.75 2.785714285714286  L 8.75 4.642857142857142  L 11.375 4.642857142857142  L 11.375 10.214285714285714  L 5.25 10.214285714285714  L 5.25 8.357142857142856  L 2.625 8.357142857142856  L 2.625 2.785714285714286  L 8.75 2.785714285714286  Z M 3.5 3.714285714285714  L 3.5 7.428571428571428  L 7.875 7.428571428571428  L 7.875 3.714285714285714  L 3.5 3.714285714285714  Z M 6.125 9.285714285714286  L 10.5 9.285714285714286  L 10.5 5.571428571428572  L 8.75 5.571428571428572  L 8.75 8.357142857142856  L 6.125 8.357142857142856  L 6.125 9.285714285714286  Z " fill-rule="nonzero" fill="#7f7f7f" stroke="none" transform="matrix(1 0 0 1 640 86 )" />
  </g>
</svg>