<?xml version="1.0" encoding="utf-8"?>
<svg version="1.1" xmlns:xlink="http://www.w3.org/1999/xlink" width="16px" height="16px" xmlns="http://www.w3.org/2000/svg">
  <g transform="matrix(1 0 0 1 -150 -351 )">
    <path d="M 12.395833333333334 6.666666666666666  C 12.395833333333334 6.847222222222221  12.329861111111112 7.003472222222221  12.197916666666666 7.135416666666666  L 7.802083333333333 11.53125  C 7.670138888888889 11.663194444444443  7.513888888888889 11.729166666666668  7.333333333333333 11.729166666666668  C 7.152777777777779 11.729166666666668  6.996527777777779 11.663194444444443  6.864583333333333 11.53125  L 3.8020833333333335 8.46875  C 3.6701388888888893 8.336805555555554  3.6041666666666665 8.180555555555554  3.6041666666666665 8  C 3.6041666666666665 7.819444444444445  3.6701388888888893 7.663194444444445  3.8020833333333335 7.53125  L 4.864583333333333 6.46875  C 4.996527777777779 6.336805555555555  5.152777777777779 6.270833333333334  5.333333333333333 6.270833333333334  C 5.513888888888889 6.270833333333334  5.670138888888889 6.336805555555555  5.802083333333333 6.46875  L 7.333333333333333 8  L 10.197916666666666 5.135416666666666  C 10.329861111111112 5.003472222222221  10.486111111111112 4.9375  10.666666666666666 4.9375  C 10.847222222222223 4.9375  11.003472222222223 5.003472222222221  11.135416666666666 5.135416666666666  L 12.197916666666666 6.197916666666666  C 12.329861111111112 6.329861111111111  12.395833333333334 6.486111111111111  12.395833333333334 6.666666666666666  Z M 12.90625 10.84375  C 13.413194444444445 9.975694444444443  13.666666666666666 9.027777777777779  13.666666666666666 8  C 13.666666666666666 6.972222222222221  13.413194444444445 6.024305555555555  12.90625 5.15625  C 12.399305555555557 4.288194444444443  11.711805555555557 3.600694444444443  10.84375 3.09375  C 9.975694444444445 2.5868055555555554  9.027777777777779 2.333333333333334  8 2.333333333333334  C 6.972222222222222 2.333333333333334  6.024305555555556 2.5868055555555554  5.15625 3.09375  C 4.288194444444445 3.600694444444443  3.6006944444444446 4.288194444444443  3.09375 5.15625  C 2.586805555555556 6.024305555555555  2.3333333333333335 6.972222222222221  2.3333333333333335 8  C 2.3333333333333335 9.027777777777779  2.586805555555556 9.975694444444443  3.09375 10.84375  C 3.6006944444444446 11.711805555555554  4.288194444444445 12.399305555555555  5.15625 12.90625  C 6.024305555555556 13.413194444444445  6.972222222222222 13.666666666666666  8 13.666666666666666  C 9.027777777777779 13.666666666666666  9.975694444444445 13.413194444444445  10.84375 12.90625  C 11.711805555555557 12.399305555555555  12.399305555555557 11.711805555555554  12.90625 10.84375  Z M 14.927083333333334 3.984375  C 15.642361111111109 5.210069444444443  16 6.548611111111109  16 8  C 16 9.45138888888889  15.642361111111109 10.789930555555554  14.927083333333334 12.015625  C 14.211805555555557 13.241319444444445  13.241319444444445 14.211805555555555  12.015625 14.927083333333334  C 10.789930555555557 15.642361111111112  9.45138888888889 16  8 16  C 6.548611111111112 16  5.210069444444445 15.642361111111112  3.984375 14.927083333333334  C 2.758680555555556 14.211805555555555  1.7881944444444446 13.241319444444445  1.0729166666666667 12.015625  C 0.35763888888888884 10.789930555555554  0 9.45138888888889  0 8  C 0 6.548611111111109  0.35763888888888884 5.210069444444443  1.0729166666666667 3.984375  C 1.7881944444444446 2.7586805555555554  2.758680555555556 1.7881944444444429  3.984375 1.072916666666666  C 5.210069444444445 0.3576388888888875  6.548611111111112 0  8 0  C 9.45138888888889 0  10.789930555555557 0.3576388888888875  12.015625 1.072916666666666  C 13.241319444444445 1.7881944444444429  14.211805555555557 2.7586805555555554  14.927083333333334 3.984375  Z " fill-rule="nonzero" fill="#63a103" stroke="none" transform="matrix(1 0 0 1 150 351 )" />
  </g>
</svg>