<?xml version="1.0" encoding="utf-8"?>
<svg version="1.1" xmlns:xlink="http://www.w3.org/1999/xlink" width="17px" height="13px" xmlns="http://www.w3.org/2000/svg">
  <g transform="matrix(1 0 0 1 -546 -1167 )">
    <path d="M 16.69290322580645 1.794612794612795  C 16.89763440860215 1.9988776655443319  17.000000000000004 2.2469135802469133  17 2.538720538720539  C 17.000000000000004 2.8305274971941623  16.89763440860215 3.078563411896744  16.69290322580645 3.2828282828282824  L 8.75225806451613 11.205387205387204  L 7.260645161290323 12.693602693602694  C 7.055913978494624 12.897867564534232  6.80731182795699 13  6.514838709677419 13  C 6.22236559139785 13  5.973763440860216 12.897867564534232  5.769032258064517 12.693602693602694  L 4.27741935483871 11.205387205387204  L 0.3070967741935484 7.244107744107745  C 0.10236559139784956 7.039842873176205  0 6.791806958473623  0 6.5  C 0 6.208193041526375  0.10236559139784956 5.960157126823793  0.3070967741935484 5.755892255892256  L 1.7987096774193547 4.267676767676768  C 2.0034408602150537 4.0634118967452295  2.2520430107526885 3.9612794612794597  2.5445161290322584 3.961279461279461  C 2.8369892473118288 3.9612794612794597  3.0855913978494627 4.0634118967452295  3.290322580645161 4.267676767676768  L 6.514838709677419 7.495791245791246  L 13.709677419354838 0.30639730639730645  C 13.914408602150539 0.10213243546576833  14.163010752688175 0  14.455483870967742 0  C 14.747956989247312 0  14.996559139784948 0.10213243546576833  15.201290322580645 0.30639730639730645  L 16.69290322580645 1.794612794612795  Z " fill-rule="nonzero" fill="#617385" stroke="none" transform="matrix(1 0 0 1 546 1167 )" />
  </g>
</svg>