<?xml version="1.0" encoding="utf-8"?>
<svg version="1.1" xmlns:xlink="http://www.w3.org/1999/xlink" width="10px" height="10px" xmlns="http://www.w3.org/2000/svg">
  <g transform="matrix(1 0 0 1 -251 -11 )">
    <path d="M 9.764309764309765 7.474747474747474  C 9.921436588103255 7.631874298540964  10 7.822671156004488  10 8.047138047138047  C 10 8.271604938271606  9.921436588103255 8.46240179573513  9.764309764309765 8.61952861952862  L 8.61952861952862 9.764309764309765  C 8.462401795735131 9.921436588103255  8.271604938271604 10  8.047138047138047 10  C 7.822671156004491 10  7.631874298540966 9.921436588103255  7.474747474747475 9.764309764309765  L 5 7.289562289562291  L 2.5252525252525255 9.764309764309765  C 2.368125701459035 9.921436588103255  2.177328843995511 10  1.9528619528619529 10  C 1.7283950617283952 10  1.5375982042648713 9.921436588103255  1.3804713804713806 9.764309764309765  L 0.2356902356902357 8.61952861952862  C 0.0785634118967453 8.46240179573513  0 8.271604938271606  0 8.047138047138047  C 0 7.822671156004488  0.0785634118967453 7.631874298540964  0.2356902356902357 7.474747474747474  L 2.71043771043771 5  L 0.2356902356902357 2.525252525252525  C 0.0785634118967453 2.368125701459034  0 2.177328843995511  0 1.9528619528619529  C 0 1.728395061728395  0.0785634118967453 1.5375982042648695  0.2356902356902357 1.3804713804713808  L 1.3804713804713806 0.23569023569023573  C 1.5375982042648713 0.07856341189674487  1.7283950617283952 0  1.9528619528619529 0  C 2.177328843995511 0  2.368125701459035 0.07856341189674487  2.5252525252525255 0.23569023569023573  L 5 2.710437710437711  L 7.474747474747475 0.23569023569023573  C 7.631874298540966 0.07856341189674487  7.822671156004491 0  8.047138047138047 0  C 8.271604938271604 0  8.462401795735131 0.07856341189674487  8.61952861952862 0.23569023569023573  L 9.764309764309765 1.3804713804713808  C 9.921436588103255 1.5375982042648695  10 1.728395061728395  10 1.9528619528619529  C 10 2.177328843995511  9.921436588103255 2.368125701459034  9.764309764309765 2.525252525252525  L 7.289562289562289 5  L 9.764309764309765 7.474747474747474  Z " fill-rule="nonzero" fill="#617385" stroke="none" transform="matrix(1 0 0 1 251 11 )" />
  </g>
</svg>