<?xml version="1.0" encoding="utf-8"?>
<svg version="1.1" xmlns:xlink="http://www.w3.org/1999/xlink" width="13px" height="13px" viewBox="695 407.5  13 13" xmlns="http://www.w3.org/2000/svg">
  <path d="M 695.5 409.5  A 1.5 1.5 0 0 1 697 408 L 706 408  A 1.5 1.5 0 0 1 707.5 409.5 L 707.5 418.5  A 1.5 1.5 0 0 1 706 420 L 697 420  A 1.5 1.5 0 0 1 695.5 418.5 L 695.5 409.5  Z " fill-rule="nonzero" fill="#ffffff" stroke="none" />
  <path d="M 695.5 409.5  A 1.5 1.5 0 0 1 697 408 L 706 408  A 1.5 1.5 0 0 1 707.5 409.5 L 707.5 418.5  A 1.5 1.5 0 0 1 706 420 L 697 420  A 1.5 1.5 0 0 1 695.5 418.5 L 695.5 409.5  Z " stroke-width="1" stroke="#797979" fill="none" />
  <path d="M 697.7857142857143 414  L 700.5714285714286 416.7857142857143  L 705.2142857142857 410.2857142857143  " stroke-width="2.7857142857142856" stroke="#797979" fill="none" />
</svg>