<?xml version="1.0" encoding="utf-8"?>
<svg version="1.1" xmlns:xlink="http://www.w3.org/1999/xlink" width="13px" height="13px" viewBox="695 492.5  13 13" xmlns="http://www.w3.org/2000/svg">
  <path d="M 695.5 494.5  A 1.5 1.5 0 0 1 697 493 L 706 493  A 1.5 1.5 0 0 1 707.5 494.5 L 707.5 503.5  A 1.5 1.5 0 0 1 706 505 L 697 505  A 1.5 1.5 0 0 1 695.5 503.5 L 695.5 494.5  Z " fill-rule="nonzero" fill="#f0f0f0" stroke="none" />
  <path d="M 695.5 494.5  A 1.5 1.5 0 0 1 697 493 L 706 493  A 1.5 1.5 0 0 1 707.5 494.5 L 707.5 503.5  A 1.5 1.5 0 0 1 706 505 L 697 505  A 1.5 1.5 0 0 1 695.5 503.5 L 695.5 494.5  Z " stroke-width="1" stroke="#797979" fill="none" />
</svg>