<?xml version="1.0" encoding="utf-8"?>
<svg version="1.1" xmlns:xlink="http://www.w3.org/1999/xlink" width="8px" height="8px" xmlns="http://www.w3.org/2000/svg">
  <g transform="matrix(1 0 0 1 -768 -191 )">
    <path d="M 772 191  C 774.24 191  776 192.76  776 195  C 776 197.24  774.24 199  772 199  C 769.76 199  768 197.24  768 195  C 768 192.76  769.76 191  772 191  Z " fill-rule="nonzero" fill="#ffffff" stroke="none" />
    <path d="M 772 191.5  C 773.96 191.5  775.5 193.04  775.5 195  C 775.5 196.96  773.96 198.5  772 198.5  C 770.04 198.5  768.5 196.96  768.5 195  C 768.5 193.04  770.04 191.5  772 191.5  Z " stroke-width="1" stroke="#b6bfc8" fill="none" />
  </g>
</svg>