<?xml version="1.0" encoding="utf-8"?>
<svg version="1.1" xmlns:xlink="http://www.w3.org/1999/xlink" width="16px" height="12px" xmlns="http://www.w3.org/2000/svg">
  <g transform="matrix(1 0 0 1 -555 -1204 )">
    <path d="M 7.461883408071749 9  L 7.9641255605381165 9  L 9.004484304932735 8.011363636363637  L 7.641255605381166 6.71590909090909  L 6.6008968609865475 7.704545454545455  L 6.6008968609865475 8.181818181818183  L 7.461883408071749 8.181818181818183  L 7.461883408071749 9  Z M 11.90134529147982 3.1448863636363638  C 12.002989536621826 3.0482954545454533  12.005979073243648 2.9545454545454533  11.910313901345292 2.8636363636363638  C 11.814648729446937 2.7727272727272716  11.715994020926757 2.7755681818181808  11.614349775784753 2.8721590909090913  L 8.475336322869955 5.855113636363637  C 8.373692077727952 5.951704545454545  8.370702541106128 6.045454545454544  8.466367713004484 6.136363636363637  C 8.562032884902841 6.227272727272727  8.66068759342302 6.224431818181817  8.762331838565023 6.12784090909091  L 11.90134529147982 3.1448863636363638  Z M 12.448430493273543 7.6789772727272725  C 12.568011958146489 7.724431818181817  12.627802690582959 7.8068181818181825  12.627802690582959 7.926136363636363  L 12.627802690582959 9.545454545454545  C 12.627802690582959 10.22159090909091  12.375186846038865 10.79971590909091  11.869955156950672 11.279829545454545  C 11.364723467862483 11.759943181818182  10.756352765321376 12  10.044843049327355 12  L 2.5829596412556053 12  C 1.8714499252615846 12  1.2630792227204783 11.759943181818182  0.757847533632287 11.279829545454545  C 0.25261584454409564 10.79971590909091  0 10.22159090909091  0 9.545454545454545  L 0 2.454545454545455  C 0 1.7784090909090895  0.25261584454409564 1.2002840909090904  0.757847533632287 0.720170454545455  C 1.2630792227204783 0.240056818181817  1.8714499252615846 0  2.5829596412556053 0  L 10.044843049327355 0  C 10.42152466367713 0  10.771300448430493 0.07102272727272663  11.094170403587444 0.2130681818181812  C 11.183856502242152 0.2528409090909083  11.237668161434977 0.3181818181818179  11.25560538116592 0.4090909090909087  C 11.27354260089686 0.5056818181818179  11.246636771300448 0.5880681818181812  11.174887892376681 0.65625  L 10.73542600896861 1.0738636363636362  C 10.651718983557549 1.1534090909090904  10.556053811659194 1.1761363636363638  10.448430493273543 1.142045454545455  C 10.310911808669657 1.107954545454545  10.176382660687594 1.0909090909090913  10.044843049327355 1.0909090909090913  L 2.5829596412556053 1.0909090909090913  C 2.188340807174888 1.0909090909090913  1.8505231689088195 1.224431818181817  1.5695067264573992 1.4914772727272725  C 1.2884902840059793 1.7585227272727266  1.147982062780269 2.079545454545455  1.147982062780269 2.454545454545455  L 1.147982062780269 9.545454545454545  C 1.147982062780269 9.920454545454545  1.2884902840059793 10.24147727272727  1.5695067264573992 10.508522727272727  C 1.8505231689088195 10.775568181818182  2.188340807174888 10.909090909090908  2.5829596412556053 10.909090909090908  L 10.044843049327355 10.909090909090908  C 10.439461883408072 10.909090909090908  10.77727952167414 10.775568181818182  11.058295964125561 10.508522727272727  C 11.339312406576981 10.24147727272727  11.47982062780269 9.920454545454545  11.47982062780269 9.545454545454545  L 11.47982062780269 8.47159090909091  C 11.47982062780269 8.397727272727272  11.506726457399104 8.335227272727273  11.560538116591928 8.28409090909091  L 12.134529147982063 7.738636363636363  C 12.22421524663677 7.65340909090909  12.3288490284006 7.633522727272727  12.448430493273543 7.6789772727272725  Z M 5.739910313901345 7.363636363636363  L 11.766816143497758 1.6363636363636362  L 14.349775784753364 4.090909090909092  L 8.32286995515695 9.818181818181817  L 5.739910313901345 9.818181818181817  L 5.739910313901345 7.363636363636363  Z M 16 2.181818181818181  C 16 2.4090909090909083  15.91629297458894 2.6022727272727266  15.748878923766815 2.7613636363636362  L 14.923766816143498 3.545454545454545  L 12.340807174887892 1.0909090909090913  L 13.165919282511211 0.3068181818181812  C 13.333333333333334 0.1477272727272716  13.53662182361734 0.06818181818181879  13.77578475336323 0.06818181818181879  C 14.014947683109119 0.06818181818181879  14.218236173393125 0.1477272727272716  14.385650224215247 0.3068181818181812  L 15.748878923766815 1.6022727272727275  C 15.91629297458894 1.7613636363636345  16 1.9545454545454541  16 2.181818181818181  Z " fill-rule="nonzero" fill="#617385" stroke="none" transform="matrix(1 0 0 1 555 1204 )" />
  </g>
</svg>