<?xml version="1.0" encoding="utf-8"?>
<svg version="1.1" xmlns:xlink="http://www.w3.org/1999/xlink" width="11px" height="12px" xmlns="http://www.w3.org/2000/svg">
  <g transform="matrix(1 0 0 1 -442 -864 )">
    <path d="M 3.9296875 4.5703125  C 3.9765625 4.6171875  4 4.677083333333333  4 4.75  L 4 9.25  C 4 9.322916666666666  3.9765625 9.3828125  3.9296875 9.4296875  C 3.8828125 9.4765625  3.8229166666666674 9.5  3.7499999999999996 9.5  L 3.25 9.5  C 3.177083333333334 9.5  3.117187500000001 9.4765625  3.0703125 9.4296875  C 3.0234375 9.3828125  3 9.322916666666666  3 9.25  L 3 4.75  C 3 4.677083333333333  3.0234375 4.6171875  3.0703125 4.5703125  C 3.117187500000001 4.5234375  3.177083333333334 4.5  3.25 4.5  L 3.7499999999999996 4.5  C 3.8229166666666674 4.5  3.8828125 4.5234375  3.9296875 4.5703125  Z M 5.9296875 4.5703125  C 5.9765625 4.6171875  6 4.677083333333333  6 4.75  L 6 9.25  C 6 9.322916666666666  5.9765625 9.3828125  5.9296875 9.4296875  C 5.8828125 9.4765625  5.822916666666667 9.5  5.75 9.5  L 5.25 9.5  C 5.177083333333334 9.5  5.1171875 9.4765625  5.0703125 9.4296875  C 5.0234375 9.3828125  5 9.322916666666666  5 9.25  L 5 4.75  C 5 4.677083333333333  5.0234375 4.6171875  5.0703125 4.5703125  C 5.1171875 4.5234375  5.177083333333334 4.5  5.25 4.5  L 5.75 4.5  C 5.822916666666667 4.5  5.8828125 4.5234375  5.9296875 4.5703125  Z M 7.929687499999999 4.5703125  C 7.9765625 4.6171875  8 4.677083333333333  8 4.75  L 8 9.25  C 8 9.322916666666666  7.9765625 9.3828125  7.929687499999999 9.4296875  C 7.882812500000001 9.4765625  7.822916666666667 9.5  7.75 9.5  L 7.25 9.5  C 7.177083333333333 9.5  7.1171875 9.4765625  7.070312499999999 9.4296875  C 7.023437500000001 9.3828125  7 9.322916666666666  7 9.25  L 7 4.75  C 7 4.677083333333333  7.023437500000001 4.6171875  7.070312499999999 4.5703125  C 7.1171875 4.5234375  7.177083333333333 4.5  7.25 4.5  L 7.75 4.5  C 7.822916666666667 4.5  7.882812500000001 4.5234375  7.929687499999999 4.5703125  Z M 8.9453125 10.72265625  C 8.981770833333334 10.626302083333334  9 10.520833333333334  9 10.40625  L 9 3  L 2 3  L 2 10.40625  C 2 10.520833333333334  2.018229166666667 10.626302083333334  2.0546875 10.72265625  C 2.0911458333333335 10.819010416666666  2.12890625 10.889322916666666  2.16796875 10.93359375  C 2.20703125 10.977864583333334  2.234375 11  2.25 11  L 8.75 11  C 8.765625 11  8.79296875 10.977864583333334  8.83203125 10.93359375  C 8.87109375 10.889322916666666  8.908854166666668 10.819010416666666  8.9453125 10.72265625  Z M 4.1328125 1.0859374999999996  L 3.7499999999999996 1.9999999999999996  L 7.25 1.9999999999999996  L 6.875 1.0859374999999996  C 6.838541666666668 1.0390624999999996  6.794270833333334 1.010416666666666  6.7421875 1.0000000000000004  L 4.265625 1.0000000000000004  C 4.213541666666667 1.010416666666666  4.169270833333334 1.0390624999999996  4.1328125 1.0859374999999996  Z M 10.9296875 2.0703124999999996  C 10.9765625 2.1171874999999996  11 2.1770833333333326  11 2.25  L 11 2.7499999999999996  C 11 2.8229166666666656  10.9765625 2.8828125  10.9296875 2.9296875  C 10.8828125 2.9765625  10.822916666666668 3  10.75 3  L 10 3  L 10 10.40625  C 10 10.838541666666666  9.877604166666668 11.212239583333334  9.6328125 11.52734375  C 9.388020833333334 11.842447916666666  9.09375 12  8.75 12  L 2.25 12  C 1.9062500000000002 12  1.611979166666667 11.84765625  1.3671875 11.54296875  C 1.1223958333333335 11.23828125  1 10.869791666666666  1 10.4375  L 1 3  L 0.25 3  C 0.17708333333333331 3  0.11718750000000001 2.9765625  0.0703125 2.9296875  C 0.0234375 2.8828125  0 2.8229166666666656  0 2.7499999999999996  L 0 2.25  C 0 2.1770833333333326  0.0234375 2.1171874999999996  0.0703125 2.0703124999999996  C 0.11718750000000001 2.0234374999999996  0.17708333333333331 1.9999999999999996  0.25 1.9999999999999996  L 2.6640625 1.9999999999999996  L 3.2109375000000004 0.6953125000000004  C 3.289062500000001 0.5026041666666656  3.4296875000000004 0.33854166666666563  3.6328125 0.20312500000000044  C 3.8359375000000004 0.0677083333333326  4.041666666666667 0  4.25 0  L 6.75 0  C 6.958333333333335 0  7.1640625 0.0677083333333326  7.367187500000001 0.20312500000000044  C 7.5703125 0.33854166666666563  7.710937500000001 0.5026041666666656  7.7890625 0.6953125000000004  L 8.3359375 1.9999999999999996  L 10.75 1.9999999999999996  C 10.822916666666668 1.9999999999999996  10.8828125 2.0234374999999996  10.9296875 2.0703124999999996  Z " fill-rule="nonzero" fill="#617385" stroke="none" transform="matrix(1 0 0 1 442 864 )" />
  </g>
</svg>