<?xml version="1.0" encoding="utf-8"?>
<svg version="1.1" xmlns:xlink="http://www.w3.org/1999/xlink" width="12px" height="12px" xmlns="http://www.w3.org/2000/svg">
  <g transform="matrix(1 0 0 1 -3 0 )">
    <path d="M 6.8046875 8.1953125  C 6.8515625 8.2421875  6.875 8.302083333333332  6.875 8.375  L 6.875 9.625  C 6.875 9.697916666666666  6.8515625 9.7578125  6.8046875 9.8046875  C 6.7578125 9.8515625  6.697916666666666 9.875  6.625 9.875  L 5.375 9.875  C 5.302083333333334 9.875  5.2421875 9.8515625  5.1953125 9.8046875  C 5.1484375 9.7578125  5.125 9.697916666666666  5.125 9.625  L 5.125 8.375  C 5.125 8.302083333333332  5.1484375 8.2421875  5.1953125 8.1953125  C 5.2421875 8.1484375  5.302083333333334 8.125  5.375 8.125  L 6.625 8.125  C 6.697916666666666 8.125  6.7578125 8.1484375  6.8046875 8.1953125  Z M 8.01953125 2.82421875  C 8.58984375 3.2903645833333326  8.875 3.848958333333332  8.875 4.5  C 8.875 4.760416666666666  8.8359375 4.994791666666666  8.7578125 5.203125  C 8.6796875 5.411458333333332  8.561197916666668 5.591145833333333  8.40234375 5.7421875  C 8.243489583333334 5.893229166666666  8.108072916666668 6.007812500000001  7.99609375 6.085937499999999  C 7.884114583333334 6.1640625  7.729166666666668 6.2578125  7.53125 6.367187499999999  C 7.364583333333334 6.460937499999999  7.243489583333334 6.533854166666665  7.16796875 6.5859375  C 7.092447916666668 6.638020833333332  7.024739583333334 6.700520833333334  6.96484375 6.7734375  C 6.904947916666668 6.846354166666666  6.875 6.921875000000001  6.875 6.999999999999999  L 6.875 7.250000000000001  C 6.875 7.322916666666667  6.8515625 7.3828125  6.8046875 7.4296875  C 6.7578125 7.4765625  6.697916666666666 7.5  6.625 7.5  L 5.375 7.5  C 5.302083333333334 7.5  5.2421875 7.4765625  5.1953125 7.4296875  C 5.1484375 7.3828125  5.125 7.322916666666667  5.125 7.250000000000001  L 5.125 6.718749999999999  C 5.125 6.536458333333334  5.15234375 6.368489583333332  5.20703125 6.214843749999999  C 5.26171875 6.061197916666666  5.32421875 5.9375  5.39453125 5.84375  C 5.46484375 5.75  5.56640625 5.657552083333332  5.69921875 5.56640625  C 5.83203125 5.475260416666666  5.938802083333334 5.408854166666666  6.01953125 5.3671875  C 6.100260416666668 5.325520833333334  6.216145833333334 5.270833333333332  6.3671875 5.203125  C 6.643229166666667 5.072916666666666  6.838541666666666 4.9609375  6.953125 4.8671875  C 7.067708333333334 4.7734375  7.125000000000002 4.645833333333334  7.125 4.484375  C 7.125000000000002 4.265624999999998  7.01171875 4.079427083333332  6.78515625 3.92578125  C 6.558593750000001 3.7721354166666656  6.309895833333334 3.6953125000000004  6.0390625 3.6953125000000004  C 5.747395833333334 3.6953125000000004  5.5 3.7656250000000004  5.296875 3.9062500000000004  C 5.145833333333334 4.010416666666666  4.9375 4.2265625  4.671875 4.5546875  C 4.625 4.617187499999998  4.559895833333334 4.6484375  4.4765625 4.6484375  C 4.419270833333334 4.6484375  4.369791666666667 4.632812499999999  4.328125 4.6015625  L 3.484375 3.9609375  C 3.432291666666667 3.9244791666666656  3.401041666666667 3.872395833333332  3.390625 3.8046874999999996  C 3.380208333333334 3.7369791666666656  3.393229166666667 3.6770833333333326  3.4296875 3.6250000000000004  C 4.065104166666667 2.625  4.973958333333334 2.1250000000000004  6.15625 2.1250000000000004  C 6.828125 2.1250000000000004  7.44921875 2.358072916666666  8.01953125 2.82421875  Z M 7.94140625 1.3984375000000004  C 7.32421875 1.1328124999999996  6.677083333333334 1.0000000000000004  6 1.0000000000000004  C 5.322916666666667 1.0000000000000004  4.67578125 1.1328124999999996  4.05859375 1.3984375000000004  C 3.44140625 1.6640625  2.91015625 2.0195312500000004  2.46484375 2.4648437500000004  C 2.01953125 2.9101562500000004  1.6640625 3.4414062499999996  1.3984375 4.05859375  C 1.1328125 4.67578125  1 5.322916666666666  1 6  C 1 6.677083333333334  1.1328125 7.32421875  1.3984375 7.941406250000001  C 1.6640625 8.55859375  2.01953125 9.08984375  2.46484375 9.53515625  C 2.91015625 9.98046875  3.44140625 10.3359375  4.05859375 10.6015625  C 4.67578125 10.8671875  5.322916666666667 11  6 11  C 6.677083333333334 11  7.32421875 10.8671875  7.94140625 10.6015625  C 8.55859375 10.3359375  9.08984375 9.98046875  9.53515625 9.53515625  C 9.98046875 9.08984375  10.3359375 8.55859375  10.6015625 7.941406250000001  C 10.8671875 7.32421875  11 6.677083333333334  11 6  C 11 5.322916666666666  10.8671875 4.67578125  10.6015625 4.05859375  C 10.3359375 3.4414062499999996  9.98046875 2.9101562500000004  9.53515625 2.4648437500000004  C 9.08984375 2.0195312500000004  8.55859375 1.6640625  7.94140625 1.3984375000000004  Z M 11.1953125 2.98828125  C 11.731770833333332 3.907552083333332  12 4.911458333333332  12 6  C 12 7.088541666666667  11.731770833333332 8.092447916666664  11.1953125 9.01171875  C 10.658854166666668 9.930989583333334  9.930989583333334 10.658854166666666  9.01171875 11.1953125  C 8.092447916666668 11.731770833333334  7.088541666666667 12  6 12  C 4.911458333333334 12  3.9075520833333335 11.731770833333334  2.98828125 11.1953125  C 2.069010416666667 10.658854166666666  1.3411458333333335 9.930989583333334  0.8046875 9.01171875  C 0.26822916666666663 8.092447916666664  0 7.088541666666667  0 6  C 0 4.911458333333332  0.26822916666666663 3.907552083333332  0.8046875 2.98828125  C 1.3411458333333335 2.0690104166666665  2.069010416666667 1.3411458333333321  2.98828125 0.8046874999999996  C 3.9075520833333335 0.26822916666666563  4.911458333333334 0  6 0  C 7.088541666666667 0  8.092447916666668 0.26822916666666563  9.01171875 0.8046874999999996  C 9.930989583333334 1.3411458333333321  10.658854166666668 2.0690104166666665  11.1953125 2.98828125  Z " fill-rule="nonzero" fill="#617385" stroke="none" transform="matrix(1 0 0 1 3 0 )" />
  </g>
</svg>